<svg width="38" height="27" viewBox="0 0 38 27" fill="none" xmlns="http://www.w3.org/2000/svg">
<path d="M32.3432 3.33333C32.3432 3.33333 28.5215 0.341667 24.0098 0L23.6032 0.814167C27.6815 1.81333 29.5532 3.24167 31.5098 5C28.1373 3.27833 24.8098 1.66667 19.0098 1.66667C13.2098 1.66667 9.88235 3.27833 6.50985 5C8.46651 3.24167 10.6932 1.65333 14.4165 0.814167L14.0098 0C9.27651 0.445833 5.67651 3.33333 5.67651 3.33333C5.67651 3.33333 1.40901 9.52166 0.676514 21.6667C4.97651 26.6275 11.5098 26.6667 11.5098 26.6667L12.8765 24.8467C10.5565 24.04 7.93985 22.6008 5.67651 20C8.37485 22.0417 12.4473 24.1667 19.0098 24.1667C25.5723 24.1667 29.6448 22.0417 32.3432 20C30.0807 22.6008 27.464 24.04 25.1432 24.8467L26.5098 26.6667C26.5098 26.6667 33.0432 26.6275 37.3432 21.6667C36.6107 9.52166 32.3432 3.33333 32.3432 3.33333ZM13.5932 18.3333C11.9815 18.3333 10.6765 16.8417 10.6765 15C10.6765 13.1583 11.9815 11.6667 13.5932 11.6667C15.2048 11.6667 16.5098 13.1583 16.5098 15C16.5098 16.8417 15.2048 18.3333 13.5932 18.3333ZM24.4265 18.3333C22.8148 18.3333 21.5098 16.8417 21.5098 15C21.5098 13.1583 22.8148 11.6667 24.4265 11.6667C26.0382 11.6667 27.3432 13.1583 27.3432 15C27.3432 16.8417 26.0382 18.3333 24.4265 18.3333Z" fill="#19A9E0"/>
</svg>
