<svg width="105" height="93" viewBox="0 0 105 93" fill="none" xmlns="http://www.w3.org/2000/svg">
<path d="M7.06112 58.6973V58.6974C7.06099 59.5055 6.7427 60.2814 6.17486 60.8541C5.60688 61.427 4.83564 61.7496 4.03056 61.7496C3.22548 61.7496 2.45425 61.427 1.88626 60.8541C1.31842 60.2814 1.00012 59.5055 1 58.6974V58.6973C1 47.9701 7.42206 38.7331 16.59 34.6761C11.7481 31.323 8.56553 25.7001 8.56553 19.3413C8.56553 9.09382 16.8303 0.75 26.9996 0.75C37.1688 0.75 45.4345 9.0938 45.4345 19.3417C45.4345 25.7006 42.2515 31.3231 37.4096 34.6765C46.5779 38.7335 53 47.97 53 58.6973C53 59.5055 52.6818 60.2815 52.1139 60.8544C51.5459 61.4273 50.7746 61.75 49.9694 61.75C49.1643 61.75 48.393 61.4273 47.825 60.8544C47.2571 60.2815 46.9389 59.5055 46.9389 58.6973C46.9389 47.6005 37.9896 38.5793 27 38.5793C16.0104 38.5793 7.06112 47.6005 7.06112 58.6973ZM39.3734 19.3417C39.3734 12.4531 33.818 6.85579 27 6.85579C20.182 6.85579 14.6271 12.453 14.6271 19.3417C14.6271 26.2304 20.182 31.8277 27 31.8277C33.818 31.8277 39.3734 26.23 39.3734 19.3417Z" fill="#19A9E0" stroke="#19A9E0"/>
<path d="M58.0611 88.6973V88.6974C58.061 89.5055 57.7427 90.2814 57.1749 90.8541C56.6069 91.427 55.8356 91.7496 55.0306 91.7496C54.2255 91.7496 53.4542 91.427 52.8863 90.8541C52.3184 90.2814 52.0001 89.5055 52 88.6974V88.6973C52 77.9701 58.4221 68.7331 67.59 64.6761C62.7481 61.323 59.5655 55.7001 59.5655 49.3413C59.5655 39.0938 67.8303 30.75 77.9996 30.75C88.1688 30.75 96.4345 39.0938 96.4345 49.3417C96.4345 55.7006 93.2515 61.3231 88.4096 64.6765C97.5779 68.7335 104 77.97 104 88.6973C104 89.5055 103.682 90.2815 103.114 90.8544C102.546 91.4273 101.775 91.75 100.969 91.75C100.164 91.75 99.393 91.4273 98.825 90.8544C98.2571 90.2815 97.9389 89.5055 97.9389 88.6973C97.9389 77.6005 88.9896 68.5793 78 68.5793C67.0104 68.5793 58.0611 77.6005 58.0611 88.6973ZM90.3734 49.3417C90.3734 42.4531 84.818 36.8558 78 36.8558C71.182 36.8558 65.6271 42.453 65.6271 49.3417C65.6271 56.2304 71.182 61.8277 78 61.8277C84.818 61.8277 90.3734 56.23 90.3734 49.3417Z" fill="#19A9E0" stroke="#19A9E0"/>
</svg>
