<svg xmlns="http://www.w3.org/2000/svg" xmlns:xlink="http://www.w3.org/1999/xlink" version="1.1" width="99" height="119" viewBox="0 0 99 119" xml:space="preserve">
<desc>Created with Fabric.js 3.5.0</desc>
<defs>
</defs>
<rect x="0" y="0" width="100%" height="100%" fill="#ffffff"/>
<g transform="matrix(1.0022 0 0 1.076 49.7021 60.0342)" id="855386">
<g style="">
		<g transform="matrix(1 0 0 1 0 0)" id="159842">
<path style="stroke: none; stroke-width: 1; stroke-dasharray: none; stroke-linecap: butt; stroke-dashoffset: 0; stroke-linejoin: miter; stroke-miterlimit: 4; is-custom-font: none; font-file-url: none; fill: rgb(25,169,224); fill-rule: nonzero; opacity: 1;" vector-effect="non-scaling-stroke" transform=" translate(-42.9, -45.338)" d="M 65.26 69.778 C 63.0413 69.778 61.204 69.466 59.748 68.842 C 58.292 68.218 57.0787 67.386 56.108 66.346 C 54.5827 67.178 52.7453 67.906 50.596 68.53 C 48.4467 69.0847 46.2973 69.362 44.148 69.362 C 40.82 69.362 37.7693 68.842 34.996 67.802 C 32.292 66.762 29.9347 65.2367 27.924 63.226 C 25.9133 61.146 24.3533 58.6153 23.244 55.634 C 22.1347 52.6527 21.58 49.186 21.58 45.234 C 21.58 41.906 22.1 38.786 23.14 35.874 C 24.18 32.8927 25.7053 30.3273 27.716 28.178 C 29.796 25.9593 32.292 24.226 35.204 22.978 C 38.1853 21.73 41.548 21.106 45.292 21.106 C 48.828 21.106 52.052 21.3833 54.964 21.938 C 57.9453 22.4927 60.2333 23.0473 61.828 23.602 V 55.426 C 61.828 57.6447 62.2093 59.2047 62.972 60.106 C 63.7347 61.0073 64.74 61.458 65.988 61.458 C 67.7907 61.458 69.3507 60.834 70.668 59.586 C 72.0547 58.338 73.164 56.7087 73.996 54.698 C 74.8973 52.6873 75.556 50.434 75.972 47.938 C 76.388 45.3727 76.596 42.7727 76.596 40.138 C 76.596 35.77 75.8333 31.6793 74.308 27.866 C 72.7827 23.9833 70.5987 20.586 67.756 17.674 C 64.9133 14.762 61.4467 12.474 57.356 10.81 C 53.3347 9.146 48.7933 8.314 43.732 8.314 C 38.6707 8.314 34.0253 9.18067 29.796 10.914 C 25.5667 12.578 21.9267 15.0047 18.876 18.194 C 15.8253 21.314 13.4333 25.162 11.7 29.738 C 10.036 34.314 9.204 39.514 9.204 45.338 C 9.204 51.4393 10.1053 56.8127 11.908 61.458 C 13.7107 66.034 16.2067 69.882 19.396 73.002 C 22.6547 76.0527 26.468 78.3407 30.836 79.866 C 35.2733 81.4607 40.1267 82.258 45.396 82.258 C 49.4867 82.258 52.8493 82.0153 55.484 81.53 C 58.188 81.0447 59.9213 80.6633 60.684 80.386 L 61.724 88.082 C 60.5453 88.498 58.396 88.9487 55.276 89.434 C 52.2253 89.9193 48.932 90.162 45.396 90.162 C 39.2253 90.162 33.4013 89.2607 27.924 87.458 C 22.4467 85.7247 17.6627 83.0207 13.572 79.346 C 9.48133 75.7407 6.22267 71.13 3.796 65.514 C 1.43867 59.8287 0.260001 53.1033 0.260001 45.338 C 0.260001 37.85 1.43867 31.298 3.796 25.682 C 6.15333 20.066 9.308 15.4207 13.26 11.746 C 17.2813 8.002 21.892 5.194 27.092 3.322 C 32.3613 1.45 37.908 0.513995 43.732 0.513995 C 49.4173 0.513995 54.7907 1.45 59.852 3.322 C 64.9133 5.12466 69.3507 7.794 73.164 11.33 C 76.9773 14.7967 79.9933 19.026 82.212 24.018 C 84.4307 28.9407 85.54 34.522 85.54 40.762 C 85.54 45.4767 84.9853 49.6367 83.876 53.242 C 82.836 56.8473 81.4147 59.898 79.612 62.394 C 77.8093 64.8207 75.66 66.658 73.164 67.906 C 70.668 69.154 68.0333 69.778 65.26 69.778 Z M 44.46 61.354 C 45.916 61.354 47.372 61.2153 48.828 60.938 C 50.3533 60.5913 51.7053 60.106 52.884 59.482 C 52.676 58.5807 52.5373 57.6793 52.468 56.778 C 52.3987 55.8767 52.364 55.01 52.364 54.178 V 29.738 C 51.948 29.5993 51.1507 29.4607 49.972 29.322 C 48.7933 29.1833 47.476 29.114 46.02 29.114 C 41.0973 29.114 37.4227 30.6393 34.996 33.69 C 32.5693 36.7407 31.356 40.5887 31.356 45.234 C 31.356 50.1567 32.5347 54.074 34.892 56.986 C 37.2493 59.898 40.4387 61.354 44.46 61.354 Z" stroke-linecap="round"/>
</g>
		<g transform="matrix(1 0 0 1 0 0)" id="780783">
<line style="stroke: rgb(109,109,109); stroke-width: 9; stroke-dasharray: none; stroke-linecap: round; stroke-dashoffset: 0; stroke-linejoin: round; stroke-miterlimit: 4; is-custom-font: none; font-file-url: none; fill: none; fill-rule: nonzero; opacity: 1;" vector-effect="non-scaling-stroke" x1="-45.591924999999996" y1="-50.519439999999996" x2="45.591924999999996" y2="50.519439999999996"/>
</g>
</g>
</g>
</svg>