<svg width="34" height="28" viewBox="0 0 34 28" fill="none" xmlns="http://www.w3.org/2000/svg">
<path fill-rule="evenodd" clip-rule="evenodd" d="M33.0084 3.53113C31.7921 4.07153 30.4871 4.43841 29.1181 4.60201C30.5167 3.75919 31.5902 2.42059 32.0925 0.829151C30.7826 1.61248 29.3348 2.17766 27.7935 2.48504C26.5574 1.16132 24.7994 0.333374 22.8493 0.333374C19.1117 0.333374 16.0783 3.38736 16.0783 7.1503C16.0783 7.68574 16.1373 8.20631 16.2555 8.70208C10.6269 8.41949 5.63847 5.70264 2.29971 1.57777C1.71862 2.5842 1.38376 3.75423 1.38376 5.00359C1.38376 7.36844 2.5804 9.45566 4.39751 10.6753C3.28952 10.6406 2.24554 10.3332 1.3296 9.82254C1.3296 9.85229 1.3296 9.87708 1.3296 9.90682C1.3296 13.2087 3.66377 15.9652 6.76124 16.5899C6.19493 16.7436 5.59415 16.8279 4.9786 16.8279C4.54032 16.8279 4.11682 16.7832 3.70317 16.7039C4.56494 19.4109 7.06655 21.3841 10.0261 21.4386C7.70673 23.268 4.79147 24.3587 1.61521 24.3587C1.0686 24.3587 0.531838 24.324 0 24.2645C2.99405 26.198 6.55441 27.3284 10.3807 27.3284C22.8346 27.3284 29.6451 16.9419 29.6451 7.93363C29.6451 7.63616 29.6401 7.34366 29.6254 7.05115C30.95 6.08934 32.0974 4.88956 33.0035 3.52122L33.0084 3.53113Z" fill="#19A9E0"/>
</svg>
