<svg width="159" height="185" viewBox="0 0 159 185" fill="none" xmlns="http://www.w3.org/2000/svg">
<path d="M50.3487 103.362C34.3096 93.5455 23.5866 75.89 23.5866 55.7815C23.5866 25.0238 48.6683 0 79.4987 0C110.329 0 135.413 25.0238 135.413 55.7828C135.413 75.8914 124.689 93.5455 108.65 103.363C138.102 114.989 159 143.66 159 177.129C159 179.217 158.169 181.219 156.689 182.695C155.21 184.171 153.203 185 151.111 185C149.018 185 147.012 184.171 145.532 182.695C144.052 181.219 143.221 179.217 143.221 177.129C143.221 142.075 114.635 113.557 79.5 113.557C44.3646 113.557 15.7788 142.075 15.7788 177.129C15.7784 179.216 14.9471 181.218 13.4676 182.694C11.9881 184.17 9.98158 184.999 7.88939 184.999C5.7972 184.999 3.7907 184.17 2.31118 182.694C0.831672 181.218 0.000317765 179.216 0 177.129C0 143.66 20.8977 114.988 50.3487 103.362ZM119.635 55.7828C119.635 33.704 101.63 15.7429 79.5 15.7429C57.3703 15.7429 39.3667 33.704 39.3667 55.7828C39.3667 77.8617 57.3703 95.8228 79.5 95.8228C101.63 95.8228 119.635 77.8604 119.635 55.7828Z" fill="#19A9E0" fill-opacity="0.22"/>
</svg>
