<svg width="24" height="28" viewBox="0 0 24 28" fill="none" xmlns="http://www.w3.org/2000/svg">
<path d="M7.59981 15.6439C5.17881 14.1582 3.56025 11.4861 3.56025 8.44261C3.56025 3.78739 7.34616 0 11.9998 0C16.6534 0 20.4398 3.78739 20.4398 8.44281C20.4398 11.4863 18.821 14.1582 16.4 15.6441C20.8456 17.4038 24 21.7431 24 26.8087C24 27.1247 23.8745 27.4277 23.6512 27.6511C23.4279 27.8745 23.125 28 22.8091 28C22.4933 28 22.1904 27.8745 21.9671 27.6511C21.7438 27.4277 21.6183 27.1247 21.6183 26.8087C21.6183 21.5033 17.3035 17.187 12 17.187C6.69655 17.187 2.3817 21.5033 2.3817 26.8087C2.38165 27.1247 2.25617 27.4276 2.03285 27.651C1.80952 27.8743 1.50665 27.9998 1.19085 27.9998C0.87505 27.9998 0.57218 27.8743 0.348858 27.651C0.125536 27.4276 4.76837e-05 27.1247 0 26.8087C0 21.7431 3.15437 17.4036 7.59981 15.6439ZM18.0581 8.44281C18.0581 5.10114 15.3403 2.3827 12 2.3827C8.65967 2.3827 5.94214 5.10114 5.94214 8.44281C5.94214 11.7845 8.65967 14.5029 12 14.5029C15.3403 14.5029 18.0581 11.7843 18.0581 8.44281Z" fill="#19A9E0"/>
</svg>
